inDegrees=no
num_controls=7
num_derivatives=13
num_iterations=47
num_multipliers=7
num_parameters=0
num_slacks=7
num_states=26
objective=0.479906
objective_accelerations=0.010779
objective_balance=0.000340
objective_effort=0.008146
objective_height=0.451456
objective_ligament=0.009184
solver_duration=678.792010
status=Solve_Succeeded
success=true
DataType=double
version=3
OpenSimVersion=4.5
endheader
time	/jointset/ground_pelvis/pelvis_tilt/value	/jointset/ground_pelvis/pelvis_tx/value	/jointset/ground_pelvis/pelvis_ty/value	/jointset/hip_l/hip_flexion_l/value	/jointset/hip_l/hip_adduction_l/value	/jointset/hip_l/hip_rotation_l/value	/jointset/back/lumbar_extension/value	/jointset/patellofemoral_l/patellar_flexion_l/value	/jointset/knee_l/knee_flexion_l/value	/jointset/knee_l/knee_adduction_l/value	/jointset/knee_l/knee_rotation_l/value	/jointset/ankle_l/ankle_angle_l/value	/jointset/subtalar_l/subtalar_angle_l/value	/jointset/ground_pelvis/pelvis_tilt/speed	/jointset/ground_pelvis/pelvis_tx/speed	/jointset/ground_pelvis/pelvis_ty/speed	/jointset/hip_l/hip_flexion_l/speed	/jointset/hip_l/hip_adduction_l/speed	/jointset/hip_l/hip_rotation_l/speed	/jointset/back/lumbar_extension/speed	/jointset/patellofemoral_l/patellar_flexion_l/speed	/jointset/knee_l/knee_flexion_l/speed	/jointset/knee_l/knee_adduction_l/speed	/jointset/knee_l/knee_rotation_l/speed	/jointset/ankle_l/ankle_angle_l/speed	/jointset/subtalar_l/subtalar_angle_l/speed	/forceset/tau_hip_flexion_l	/forceset/tau_hip_adduction_l	/forceset/tau_hip_rotation_l	/forceset/tau_knee_flexion_l	/forceset/tau_ankle_angle_l	/forceset/tau_subtalar_angle_l	/forceset/tau_lumbar_extension	lambda_cid13_p0	lambda_cid13_p1	lambda_cid13_p2	lambda_cid13_p3	lambda_cid13_p4	lambda_cid13_p5	lambda_cid14_p0	/jointset/ground_pelvis/pelvis_tilt/accel	/jointset/ground_pelvis/pelvis_tx/accel	/jointset/ground_pelvis/pelvis_ty/accel	/jointset/hip_l/hip_flexion_l/accel	/jointset/hip_l/hip_adduction_l/accel	/jointset/hip_l/hip_rotation_l/accel	/jointset/back/lumbar_extension/accel	/jointset/patellofemoral_l/patellar_flexion_l/accel	/jointset/knee_l/knee_flexion_l/accel	/jointset/knee_l/knee_adduction_l/accel	/jointset/knee_l/knee_rotation_l/accel	/jointset/ankle_l/ankle_angle_l/accel	/jointset/subtalar_l/subtalar_angle_l/accel	gamma_cid13_p0	gamma_cid13_p1	gamma_cid13_p2	gamma_cid13_p3	gamma_cid13_p4	gamma_cid13_p5	gamma_cid14_p0
1.5	0.02212166935272964	0.181162585907309	0.888278833636551	0.167879527168159	-0.3410847667633571	-0.2213390067290252	-0.2376134333012686	0.3810580329146059	0.3810580329146055	-0.05822337441468701	-0.1714024983467016	0.2820536285355412	0.1832845277909996	-0.4424963374250993	-0.02476362015496711	0.07422511689268091	-0.02387184050170084	0.1114745018974117	-0.2880900863187928	0.5630791154711444	-0.9740196590776431	-0.9740196590776445	-0.03697436185284481	0.01136721653055392	-0.5582220221370119	-0.09671290876963604	0.02484734973434833	0.06103768598755769	0.001569702083387097	-0.1216264874252331	-0.06296519769909839	-0.03661254267791182	0.02513434986089635	-49.52293516976354	22.83149655398706	-1.932976583938556	5.944776227083374	-455.7010723232038	-30.534461577606	-24.51734118980454	-0.2164749786434209	-0.1552766374089389	-0.1489088704505016	0.03852726205294223	0.06124880224439429	-0.1363433894632363	0.1798994020987865	-0.6799129049073335	-0.67991290490732	-0.2700257955300628	0.008354087894786366	-0.5344166109414662	-0.07170944865107021	-2.911610770668123e-08	1.35026632356551e-07	1.204003211162404e-08	2.293927314219005e-08	-3.852052327531911e-08	3.357423230841691e-08	3.84136359000586e-09
1.51	0.0176862221803479	0.1809072404743969	0.8890134279234146	0.1676430722818674	-0.3399671257817041	-0.2242267233091797	-0.2319741202535136	0.3712852887307366	0.3712852887307366	-0.05860653670069799	-0.1712887433698524	0.2764455139988934	0.1823139909364541	-0.4445447365143472	-0.0263000051279501	0.07267617356377744	-0.02341015728877367	0.1120384328522399	-0.2894223384100224	0.5647186957323652	-0.9804012485417737	-0.9804012485417751	-0.03966028091890846	0.01138481029375359	-0.5633249237087757	-0.09737884366496216	0.02461017252980643	0.06014210818324212	0.001471603794552193	-0.1192860690093625	-0.06139018000653236	-0.03728169124197561	0.0246881410795063	-48.99825976564104	22.89238317316562	-1.785216986297123	5.684194341809325	-455.0840865957363	-30.54187216990081	-24.65866013155836	-0.1917710348709381	-0.1519958435238766	-0.1605282008092533	0.05133225726802408	0.0516569111255703	-0.1270289646873055	0.146267586012374	-0.5980934605095277	-0.5980934605095725	-0.2681796644769684	-0.001381107064943599	-0.4868318089762258	-0.06171428617821934	-2.772373227922737e-08	1.354148313742425e-07	8.73191837352698e-09	2.22823693200049e-08	-3.322453779270908e-08	3.754399206922249e-08	4.165541039194819e-09
1.52	0.01323174128491259	0.1806366959084987	0.8897320045496493	0.1674115029089762	-0.3388443071566982	-0.2271268349793934	-0.2263203553535708	0.3614525663535573	0.3614525663535575	-0.05901661911783611	-0.1711747810808908	0.2707886494707915	0.1813372589777144	-0.4463030820358128	-0.02780344675216897	0.0710215847669146	-0.02289473782163056	0.1125100305680096	-0.2905691043306366	0.5659694859087319	-0.986015297739649	-0.9860152977396509	-0.04235838807826862	0.01140867895305323	-0.567972020427835	-0.09795192960848173	0.02437299532526453	0.05924653037892656	0.001373505505717522	-0.1169456505934917	-0.05981516231396633	-0.0379508398060394	0.02424193229811627	-48.47684132883738	22.95357973822695	-1.63720922088444	5.431491804972862	-454.5163617324059	-30.56046703237229	-24.79332226724271	-0.1584642650869185	-0.1486879676561111	-0.170037964042379	0.04927451289604829	0.04278215443270478	-0.09924615534067996	0.1021413851279611	-0.5264048516563206	-0.5264048516563208	-0.2724634141892074	0.009609067114782016	-0.4432556404005614	-0.05313965828976354	-2.665908205891923e-08	1.40676671325566e-07	4.395830051258632e-09	2.212230285777708e-08	-2.640966453501286e-08	4.552447504591711e-08	4.658830367100178e-09
1.53	0.00876118836716059	0.1803512884269984	0.8904335351043099	0.1671852934996631	-0.3377171830438443	-0.230037814173803	-0.2206561055566441	0.3515675519023524	0.3515675519023524	-0.05945354624838617	-0.1710608079132753	0.2650876187316626	0.180355333608106	-0.4477597986949201	-0.02927226178472783	0.06926843958562572	-0.02233024350381475	0.1129045774353617	-0.2916260298470875	0.5668149666135003	-0.9908479969212317	-0.9908479969212328	-0.04500715830964544	0.01136029223384566	-0.5721513821790758	-0.09840868364458598	0.02414844907131861	0.05831252267949894	0.001265096734993209	-0.1146317496024198	-0.05816214805417642	-0.03860808258790392	0.02379063280786247	-47.92885666128431	23.00668605375892	-1.489890114623687	5.152004117086939	-453.9457164311736	-30.60389691873599	-24.92148296650642	-0.1321232396162955	-0.1451055691703058	-0.1803684758370716	0.06256812629521297	0.03623927423857675	-0.1088049081644147	0.06592538368457856	-0.4407642528105478	-0.4407642528104492	-0.2580766698141036	-0.01591148016379165	-0.3928629284600273	-0.03829775249895342	-2.594263987120341e-08	1.511167547688733e-07	-1.032481266691698e-09	2.249012609050391e-08	-1.798097301628758e-08	5.776635143949376e-08	5.33180106614171e-09
1.54	0.004277498708158778	0.1800513673355495	0.8911170510710246	0.1669652352805424	-0.3365864237980467	-0.2329593404550504	-0.214985366158563	0.3416383980990514	0.3416383980990514	-0.05991635964969044	-0.1709480884005969	0.2593472770778267	0.179369569802891	-0.448930430285774	-0.03070616874186798	0.06741866717773964	-0.02166449978316359	0.1132370571567985	-0.2926785216982235	0.567267406139601	-0.9948431681588662	-0.9948431681588672	-0.0475356422291097	0.01115794796562751	-0.5758342033692848	-0.0987196167298182	0.02392390281737273	0.05737851498007136	0.001156687964268856	-0.1123178486113478	-0.05650913379438648	-0.03926532536976842	0.0233393333176087	-47.38339373320099	23.06027963087715	-1.34270089962391	4.879069668962551	-453.4105058684957	-30.6557774958269	-25.04296847160321	-0.1012472514362376	-0.1417063525723683	-0.189363409361819	0.06952439346319025	0.03036872524964054	-0.09835942227773145	0.02353314939447166	-0.3588992628666601	-0.3588992628667921	-0.2484061518066972	-0.02118244268733291	-0.3439475281942772	-0.02397546811535837	-2.48120325827576e-08	1.729746347560258e-07	-1.730227876357799e-08	2.407589543094401e-08	-7.528371463910369e-09	8.632339009339216e-08	7.702542023472359e-09
1.55	-0.0002163274669370382	0.1797372922228874	0.8917816269918284	0.1667521185642677	-0.3354526499440145	-0.2358913405611501	-0.2093122301669483	0.331673380415768	0.331673380415768	-0.06040391199478117	-0.1708381213970075	0.2535725620971365	0.17838139877144	-0.4497819067899668	-0.03210253258177309	0.06548289137891704	-0.02094444286560282	0.1135104745144088	-0.2937162471961313	0.5672872075823525	-0.9980159378500257	-0.9980159378500276	-0.04994869003120174	0.01081471212185899	-0.5790220607433371	-0.09888611836168433	0.02371144700217927	0.05646244542334526	0.001040864562213021	-0.1100482669618742	-0.05476409031695179	-0.03995615874330389	0.02288445322695832	-46.81279232310273	23.1295995437053	-1.204346398638801	4.58285399815075	-452.8973210562671	-30.68581053179501	-25.15679901527244	-0.0691668695663883	-0.1376474732780461	-0.1977260340350574	0.07540243947179608	0.02472530320265093	-0.1056770976361294	-0.0196840484315596	-0.2748041117169437	-0.2748041117169792	-0.2338034914767344	-0.04401371756262543	-0.2931906435049769	-0.008744594486344348	-2.320423506955769e-08	2.07987802065434e-07	-4.606335381445506e-08	2.706495050418409e-08	5.25612643158743e-09	1.336783330907037e-07	1.202940958274471e-08
1.56	-0.004717082211005905	0.1794094442571107	0.8924264368808656	0.1665466336368825	-0.3343163625039691	-0.2388335575190465	-0.2036410736989355	0.3216809673776778	0.3216809673776776	-0.06091480469730611	-0.170732210664324	0.247768571382407	0.1773924113069175	-0.4503161440803833	-0.03346073936481675	0.06346546082439136	-0.02013814200527095	0.1137397743594557	-0.294721892057582	0.5668715014192192	-1.000322239120238	-1.00032223912024	-0.0522037137159496	0.01034669378444378	-0.5816893501771595	-0.09888290334411456	0.02349899118698582	0.05554637586661918	0.0009250411601569888	-0.1077786853124006	-0.05301904683951707	-0.04064699211683934	0.02242957313630796	-46.24371650605375	23.19912675790927	-1.065956522346088	4.290759069726704	-452.4032573537849	-30.72314485867102	-25.26276747324241	-0.03779940868101993	-0.1340749412000781	-0.2056943605024323	0.08677318201741811	0.02154522273693816	-0.09194329498527469	-0.06356837178271202	-0.1856055786771806	-0.1856055786771806	-0.2168013283383357	-0.04613894141728636	-0.2398339401481929	0.009967861771822698	-2.262924871283438e-08	2.271855518555832e-07	-5.86848859278606e-08	2.846548104361958e-08	1.436812906137624e-08	1.557140784771336e-07	1.403362918077657e-08
1.57	-0.009221647982116075	0.1790682412789512	0.893050676742234	0.1663496959653903	-0.3331780182286469	-0.2417853744402505	-0.1979760461717423	0.3116698817553135	0.3116698817553135	-0.06144753932026913	-0.1706313549855252	0.2419405770111864	0.1764042923429576	-0.4505525735841265	-0.03477007472876821	0.06136944242292018	-0.01922300017526403	0.1139178939585312	-0.2956025137517981	0.5660852098155815	-1.001738491933192	-1.001738491933192	-0.05432698584851912	0.009829264093217029	-0.5838140316500094	-0.0987158726086714	0.02323897017991235	0.05459122179659905	0.0008062906157488652	-0.1055071252360051	-0.05123907288461776	-0.04131225256280793	0.02203096060066051	-45.66172857928845	23.25467170939861	-0.924635099373181	3.962668857836063	-451.9395656842165	-30.79434964777662	-25.36070190516223	-0.009903750800957538	-0.1278900945508513	-0.2135116353818185	0.09783886033077165	0.0142465631313946	-0.08026259526899478	-0.09347868523010215	-0.0961786430688433	-0.09617864306848703	-0.2076245438983159	-0.05382837736290547	-0.1844573263896483	0.02379381301536774	-2.334527630170681e-08	2.266140297466589e-07	-5.113198936942697e-08	2.788035591579934e-08	1.888951260902887e-08	1.461008268499616e-07	1.313453882725784e-08
1.58	-0.01372724585417968	0.1787142394950405	0.8936535652085055	0.166162700547566	-0.3320382325104063	-0.2447448257761226	-0.1923203453867007	0.3016493249027269	0.301649324902727	-0.06200101354219426	-0.1705355302825162	0.23609420141013	0.1754185883130691	-0.4505225642710691	-0.03602050051504652	0.05919518180495469	-0.01814969127171943	0.1140280629431482	-0.2962487749911827	0.5650061529889117	-1.002216485164721	-1.002216485164718	-0.05635163350837134	0.009340498626488752	-0.5853655961443095	-0.09839991652983654	0.0229789491728389	0.05363606772657896	0.0006875400713407871	-0.1032355651596096	-0.04945909892971844	-0.04197751300877648	0.02163234806501307	-45.08085693705161	23.31080667800794	-0.7838580568608258	3.637702056106089	-451.4862815023143	-30.86978693251417	-25.45040351177062	0.01548835467910637	-0.1222930256654471	-0.2213428038012911	0.1184065967249482	0.007955099845230365	-0.04507120401897072	-0.1221214163891316	0.002046337607785588	0.002046337607785824	-0.1970764337949199	-0.04040609651760066	-0.1252105444382026	0.03975293045011551	-2.340622334047098e-08	2.25879207243955e-07	-4.711332813970649e-08	2.733976595617736e-08	2.428841196731824e-08	1.40443961211656e-07	1.264058058929112e-08
